<?xml version="1.0" encoding="UTF-8" standalone="no"?>
<svg
   xmlns:dc="http://purl.org/dc/elements/1.1/"
   xmlns:cc="http://creativecommons.org/ns#"
   xmlns:rdf="http://www.w3.org/1999/02/22-rdf-syntax-ns#"
   xmlns:svg="http://www.w3.org/2000/svg"
   xmlns="http://www.w3.org/2000/svg"
   xmlns:sodipodi="http://sodipodi.sourceforge.net/DTD/sodipodi-0.dtd"
   xmlns:inkscape="http://www.inkscape.org/namespaces/inkscape"
   version="1.1"
   width="24"
   height="24"
   viewBox="0 0 24 24"
   id="svg4"
   sodipodi:docname="icon_share_to_browser.svg"
   inkscape:version="0.92.3 (2405546, 2018-03-11)">
  <metadata
     id="metadata10">
    <rdf:RDF>
      <cc:Work
         rdf:about="">
        <dc:format>image/svg+xml</dc:format>
        <dc:type
           rdf:resource="http://purl.org/dc/dcmitype/StillImage" />
        <dc:title></dc:title>
      </cc:Work>
    </rdf:RDF>
  </metadata>
  <defs
     id="defs8" />
  <sodipodi:namedview
     pagecolor="#ffffff"
     bordercolor="#666666"
     borderopacity="1"
     objecttolerance="10"
     gridtolerance="10"
     guidetolerance="10"
     inkscape:pageopacity="0"
     inkscape:pageshadow="2"
     inkscape:window-width="1858"
     inkscape:window-height="1057"
     id="namedview6"
     showgrid="false"
     inkscape:zoom="27.812867"
     inkscape:cx="15.517832"
     inkscape:cy="10.328566"
     inkscape:window-x="54"
     inkscape:window-y="-8"
     inkscape:window-maximized="1"
     inkscape:current-layer="svg4" />
  <path
     style="display:inline;fill:#757575;fill-opacity:1;stroke-width:0.90772074"
     d="m 20.932713,2.1382047 c -0.590168,0 -1.067281,0.475338 -1.067281,1.0655078 0,0.085326 0.01424,0.1682079 0.03191,0.2499771 L 17.392257,4.914553 C 17.200273,4.73679 16.948006,4.6273446 16.667143,4.6273446 c -0.590169,0 -1.067281,0.475338 -1.067281,1.0655079 0,0.59017 0.477112,1.0672807 1.067281,1.0672807 0.280862,0 0.53313,-0.1112186 0.725113,-0.2889813 L 19.92217,7.949744 c -0.0178,0.074658 -0.02837,0.1540349 -0.02837,0.2322491 0,0.5723932 0.466518,1.0371413 1.038914,1.0371413 0.572394,0 1.038913,-0.4647481 1.038913,-1.0371413 0,-0.5723939 -0.466519,-1.0389151 -1.038913,-1.0389151 -0.270198,0 -0.511873,0.1077027 -0.696747,0.2747987 L 17.700741,5.9410581 c 0.01778,-0.081767 0.03192,-0.1628808 0.03192,-0.2482056 0,-0.085326 -0.01413,-0.1664339 -0.03192,-0.2482042 L 20.207607,3.9837851 C 20.399582,4.161546 20.651857,4.2709937 20.93272,4.2709937 21.522892,4.2709937 22,3.7938818 22,3.2037125 22,2.6135427 21.522892,2.1382047 20.93272,2.1382047 Z M 11.077209,2.8455876 C 6.0665882,2.8455876 2,6.9121764 2,11.922794 2,16.933413 6.0665882,21 11.077209,21 c 5.010618,0 9.077204,-4.066587 9.077204,-9.077206 0,-0.308624 -0.01712,-0.608172 -0.04432,-0.907721 h -1.843798 c 0.03631,0.299549 0.07268,0.599097 0.07268,0.907721 0,1.888059 -0.725823,3.604218 -1.90586,4.893182 C 16.1971,16.080722 15.52503,15.553677 14.708083,15.553677 h -0.907719 v -2.723162 c 0,-0.499246 -0.408476,-0.907721 -0.907721,-0.907721 H 7.446326 v -1.815441 h 1.8154423 c 0.4992454,0 0.9077217,-0.4084742 0.9077217,-0.9077213 V 7.3841912 h 1.815442 c 0.998492,0 1.81544,-0.8169489 1.81544,-1.8154414 V 3.2639905 C 12.938038,2.9916744 12.030317,2.8455876 11.077209,2.8455876 Z m -7.0702949,7.4532374 4.3471307,4.347131 v 0.907721 c 0,0.998493 0.8169483,1.815441 1.8154422,1.815441 v 1.753391 C 6.5839895,18.677725 3.815441,15.626296 3.815441,11.922794 c 0,-0.562788 0.07347,-1.097492 0.1914731,-1.623969 z"
     id="path1195-5-2"
     inkscape:connector-curvature="0" />
</svg>
