<?xml version="1.0" encoding="UTF-8" standalone="no"?>
<!-- Created with Inkscape (http://www.inkscape.org/) -->

<svg
   xmlns:dc="http://purl.org/dc/elements/1.1/"
   xmlns:cc="http://creativecommons.org/ns#"
   xmlns:rdf="http://www.w3.org/1999/02/22-rdf-syntax-ns#"
   xmlns:svg="http://www.w3.org/2000/svg"
   xmlns="http://www.w3.org/2000/svg"
   xmlns:sodipodi="http://sodipodi.sourceforge.net/DTD/sodipodi-0.dtd"
   xmlns:inkscape="http://www.inkscape.org/namespaces/inkscape"
   width="48"
   height="48"
   viewBox="0 0 12.7 12.7"
   version="1.1"
   id="svg8"
   inkscape:version="0.92.3 (2405546, 2018-03-11)"
   sodipodi:docname="launcher_icon_foreground.svg"
   inkscape:export-filename="C:\Users\Luke\Downloads\fg.png"
   inkscape:export-xdpi="1024"
   inkscape:export-ydpi="1024">
  <defs
     id="defs2">
    <filter
       style="color-interpolation-filters:sRGB;"
       inkscape:label="Drop Shadow"
       id="filter1334">
      <feFlood
         flood-opacity="0.25098"
         flood-color="rgb(0,0,0)"
         result="flood"
         id="feFlood1324" />
      <feComposite
         in="flood"
         in2="SourceGraphic"
         operator="out"
         result="composite1"
         id="feComposite1326" />
      <feGaussianBlur
         in="composite1"
         stdDeviation="0.2"
         result="blur"
         id="feGaussianBlur1328" />
      <feOffset
         dx="0.1"
         dy="0.1"
         result="offset"
         id="feOffset1330" />
      <feComposite
         in="offset"
         in2="SourceGraphic"
         operator="in"
         result="composite2"
         id="feComposite1332" />
    </filter>
    <filter
       style="color-interpolation-filters:sRGB;"
       inkscape:label="Drop Shadow"
       id="filter1407">
      <feFlood
         flood-opacity="0.25098"
         flood-color="rgb(0,0,0)"
         result="flood"
         id="feFlood1397" />
      <feComposite
         in="flood"
         in2="SourceGraphic"
         operator="in"
         result="composite1"
         id="feComposite1399" />
      <feGaussianBlur
         in="composite1"
         stdDeviation="0.2"
         result="blur"
         id="feGaussianBlur1401" />
      <feOffset
         dx="0"
         dy="0"
         result="offset"
         id="feOffset1403" />
      <feComposite
         in="offset"
         in2="SourceGraphic"
         operator="out"
         result="composite2"
         id="feComposite1405" />
    </filter>
    <filter
       style="color-interpolation-filters:sRGB"
       inkscape:label="Drop Shadow"
       id="filter1407-4">
      <feFlood
         flood-opacity="0.25098"
         flood-color="rgb(0,0,0)"
         result="flood"
         id="feFlood1397-2" />
      <feComposite
         in="flood"
         in2="SourceGraphic"
         operator="in"
         result="composite1"
         id="feComposite1399-7" />
      <feGaussianBlur
         in="composite1"
         stdDeviation="0.2"
         result="blur"
         id="feGaussianBlur1401-7" />
      <feOffset
         dx="0"
         dy="0"
         result="offset"
         id="feOffset1403-8" />
      <feComposite
         in="offset"
         in2="SourceGraphic"
         operator="out"
         result="composite2"
         id="feComposite1405-4" />
    </filter>
    <filter
       style="color-interpolation-filters:sRGB"
       inkscape:label="Drop Shadow"
       id="filter1334-3">
      <feFlood
         flood-opacity="0.25098"
         flood-color="rgb(0,0,0)"
         result="flood"
         id="feFlood1324-9" />
      <feComposite
         in="flood"
         in2="SourceGraphic"
         operator="out"
         result="composite1"
         id="feComposite1326-1" />
      <feGaussianBlur
         in="composite1"
         stdDeviation="0.2"
         result="blur"
         id="feGaussianBlur1328-3" />
      <feOffset
         dx="0.1"
         dy="0.1"
         result="offset"
         id="feOffset1330-1" />
      <feComposite
         in="offset"
         in2="SourceGraphic"
         operator="in"
         result="composite2"
         id="feComposite1332-6" />
    </filter>
  </defs>
  <sodipodi:namedview
     id="base"
     pagecolor="#ffffff"
     bordercolor="#666666"
     borderopacity="1.0"
     inkscape:pageopacity="0.0"
     inkscape:pageshadow="2"
     inkscape:zoom="13.461459"
     inkscape:cx="27.406498"
     inkscape:cy="23.380185"
     inkscape:document-units="px"
     inkscape:current-layer="layer1"
     showgrid="false"
     units="px"
     inkscape:window-width="1858"
     inkscape:window-height="1057"
     inkscape:window-x="54"
     inkscape:window-y="-8"
     inkscape:window-maximized="1"
     inkscape:snap-page="true"
     showguides="false"
     inkscape:snap-nodes="true"
     inkscape:object-paths="true"
     inkscape:snap-intersection-paths="true"
     inkscape:snap-smooth-nodes="true"
     inkscape:snap-midpoints="true" />
  <metadata
     id="metadata5">
    <rdf:RDF>
      <cc:Work
         rdf:about="">
        <dc:format>image/svg+xml</dc:format>
        <dc:type
           rdf:resource="http://purl.org/dc/dcmitype/StillImage" />
        <dc:title></dc:title>
      </cc:Work>
    </rdf:RDF>
  </metadata>
  <g
     inkscape:label="Foreground"
     inkscape:groupmode="layer"
     id="layer1"
     transform="translate(0,-284.3)"
     style="display:inline">
    <g
       id="g1418"
       transform="matrix(0.80000723,0,0,0.80000723,1.2699537,58.127915)">
      <path
         inkscape:connector-curvature="0"
         id="path1336"
         d="m 9.2226919,287.79833 c -0.172024,0 -0.311092,0.13855 -0.311092,0.31057 0,0.0249 0.0041,0.049 0.0093,0.0729 l -0.730188,0.42581 c -0.05596,-0.0518 -0.12949,-0.0837 -0.211356,-0.0837 -0.01665,0 -0.03109,0.007 -0.04703,0.009 -0.254069,-0.19023 -0.542635,-0.33593 -0.855762,-0.4253 -0.05318,-0.0153 -0.106891,-0.0294 -0.16123,-0.0413 -0.02618,-0.006 -0.0526,-0.0106 -0.07906,-0.0155 -0.05555,-0.0104 -0.111721,-0.019 -0.168465,-0.0258 -0.02479,-0.003 -0.04942,-0.007 -0.07441,-0.009 -0.08015,-0.007 -0.160918,-0.0119 -0.243396,-0.0119 -0.639298,0 -1.225746,0.22665 -1.683102,0.6041 -0.130673,0.10784 -0.250793,0.22796 -0.358634,0.35863 -0.107841,0.13067 -0.203275,0.27172 -0.284737,0.42168 -7.1e-5,1.3e-4 7e-5,3.9e-4 0,5.2e-4 -0.08136,0.14983 -0.149014,0.30832 -0.200505,0.47387 -4.8e-5,1.5e-4 4.9e-5,3.6e-4 0,5.2e-4 -0.07721,0.2484 -0.118855,0.5127 -0.118855,0.78651 0,0.27399 0.04155,0.53797 0.118855,0.78652 0.02578,0.0828 0.0554,0.16375 0.08888,0.24288 6.3e-5,1.4e-4 -6.2e-5,3.6e-4 0,5.1e-4 0.03344,0.079 0.07095,0.15564 0.111621,0.23048 7.4e-5,1.4e-4 -7.3e-5,3.8e-4 0,5.2e-4 0.08146,0.14995 0.176897,0.291 0.284738,0.42168 0.107841,0.13067 0.227961,0.25079 0.358634,0.35863 9.8e-5,8e-5 4.19e-4,-8e-5 5.17e-4,0 0.06524,0.0538 0.132823,0.10498 0.203089,0.15245 1.14e-4,7e-5 4.02e-4,-8e-5 5.16e-4,0 0.140655,0.095 0.290934,0.17702 0.449069,0.24391 1.43e-4,6e-5 3.73e-4,-6e-5 5.16e-4,0 0.079,0.0334 0.159669,0.0632 0.242363,0.0889 1.55e-4,5e-5 3.61e-4,-5e-5 5.17e-4,0 0.165552,0.0515 0.33801,0.0874 0.51573,0.10542 1.71e-4,2e-5 3.46e-4,-2e-5 5.17e-4,0 0.08878,0.009 0.179113,0.014 0.270268,0.014 0.09133,0 0.181322,-0.005 0.270267,-0.014 0.177891,-0.0181 0.35055,-0.0539 0.516248,-0.10542 0.08298,-0.0258 0.164133,-0.0553 0.243396,-0.0889 0.158271,-0.0669 0.308309,-0.14882 0.449068,-0.24391 0.07049,-0.0476 0.138687,-0.0984 0.204122,-0.15245 0.06543,-0.054 0.127654,-0.1111 0.187585,-0.17105 0.119594,-0.11963 0.227955,-0.25054 0.322978,-0.39119 0.04763,-0.0705 0.09202,-0.14347 0.132809,-0.21859 0.04067,-0.0748 0.07766,-0.1515 0.111104,-0.23048 6.3e-5,-1.5e-4 -6.3e-5,-3.7e-4 0,-5.1e-4 0.03349,-0.0791 0.06362,-0.16005 0.0894,-0.24288 0.07731,-0.24855 0.118856,-0.51253 0.118856,-0.78652 0,-0.09 -0.005,-0.17727 -0.01292,-0.26458 h -5.17e-4 c -0.03827,-0.38571 -0.16137,-0.74559 -0.347265,-1.06454 l 0.293005,0.17105 c -0.0052,0.0218 -0.0083,0.0449 -0.0083,0.0677 0,0.16684 0.135982,0.30231 0.302824,0.30231 0.166841,0 0.302823,-0.13547 0.302823,-0.30231 0,-0.16684 -0.135982,-0.30283 -0.302823,-0.30283 -0.07876,0 -0.149202,0.0314 -0.203089,0.0801 l -0.622184,-0.36225 c -0.03478,-0.0425 -0.07276,-0.0823 -0.110071,-0.12247 4.69e-4,-0.006 0.0026,-0.0119 0.0026,-0.0181 0,-0.0249 -0.0041,-0.0485 -0.0093,-0.0723 l 0.730705,-0.42581 c 0.05596,0.0518 0.12949,0.0837 0.211357,0.0837 0.172023,0 0.311092,-0.13907 0.311092,-0.3111 0,-0.17202 -0.139069,-0.31057 -0.311092,-0.31057 z"
         style="fill:#2e7d32;fill-opacity:1;stroke-width:0.26458332;filter:url(#filter1407)" />
      <path
         sodipodi:nodetypes="scscs"
         style="fill:#90a4ae;fill-opacity:1;stroke-width:0.26458332"
         inkscape:connector-curvature="0"
         d="m 6.35,288.00417 c -1.461252,0 -2.6458314,1.18458 -2.6458332,2.64583 1.8e-6,1.46125 1.1845812,2.64583 2.6458332,2.64583 1.461252,0 2.645831,-1.18458 2.645833,-2.64583 -2e-6,-1.46125 -1.184581,-2.64583 -2.645833,-2.64583 z"
         id="path815" />
      <path
         id="path1193"
         transform="matrix(0.26458333,0,0,0.26458333,0.2645839,284.03542)"
         d="m 23.919922,15.044922 c 0.09445,0.0087 0.187656,0.02191 0.28125,0.0332 -0.09368,-0.01124 -0.186789,-0.02457 -0.28125,-0.0332 z m 0.917969,0.130859 c 0.09991,0.01875 0.199933,0.03686 0.298828,0.05859 -0.09894,-0.02156 -0.198818,-0.03999 -0.298828,-0.05859 z m 0.908203,0.214844 c 0.08424,0.0242 0.170433,0.04395 0.253906,0.07031 V 18 c 0,1.1 -0.9,2 -2,2 h -2 v 2 c 0,0.55 -0.45,1 -1,1 h -2 v 2 h 6 c 0.55,0 1,0.45 1,1 v 3 h 1 c 0.9,0 1.640391,0.580625 1.900391,1.390625 C 30.200391,28.970625 31,27.08 31,25 31,24.66 30.95992,24.33 30.91992,24 h 2.029297 c -0.144638,-1.457802 -0.609905,-2.817983 -1.3125,-4.023438 l -1.679688,-0.982421 c -0.2115,0.195833 -0.489411,0.318359 -0.798828,0.318359 -0.650166,0 -1.175781,-0.525614 -1.175781,-1.175781 0,-0.587252 0.43596,-1.050491 0.998047,-1.138672 -0.960261,-0.71898 -2.050905,-1.26963 -3.234375,-1.607422 z m -9.107422,1.892578 c -0.493883,0.407588 -0.947881,0.861587 -1.355469,1.355469 0.407389,-0.493574 0.861955,-0.94801 1.355469,-1.355469 z m -1.355469,1.355469 c -0.407588,0.493882 -0.768282,1.026978 -1.076172,1.59375 0.307834,-0.566211 0.668829,-1.100232 1.076172,-1.59375 z m 15.039063,-0.433594 c -0.0053,0.06897 -0.01071,0.137559 -0.02539,0.205078 l 0.441406,0.257813 c -0.131467,-0.16048 -0.27499,-0.310965 -0.416016,-0.462891 z m -15.111328,5.00586 C 15.08094,23.790937 15,24.38 15,25 c 0,4.08 3.05,7.441641 7,7.931641 V 31 c -1.1,0 -2,-0.9 -2,-2 v -1 z m -1.003907,6.554687 c 0.30789,0.566772 0.668584,1.099868 1.076172,1.59375 -0.407343,-0.493519 -0.768338,-1.027539 -1.076172,-1.59375 z m 1.076172,1.59375 c 0.407588,0.493882 0.861586,0.947881 1.355469,1.355469 -0.493514,-0.407459 -0.94808,-0.861895 -1.355469,-1.355469 z m 16.007813,-0.769531 c -0.359532,0.532031 -0.768204,1.026015 -1.220704,1.478515 0.452006,-0.452135 0.861559,-0.946912 1.220704,-1.478515 z m -1.220704,1.478515 c -0.225909,0.22591 -0.462412,0.442909 -0.708984,0.646485 0.247313,-0.204101 0.482471,-0.419907 0.708984,-0.646485 z m -12.660156,1.222657 c 0.531607,0.359017 1.099592,0.66908 1.697266,0.921875 -0.59753,-0.252998 -1.165716,-0.56267 -1.697266,-0.921875 z m 11.179688,0 c -0.53155,0.359205 -1.099736,0.668877 -1.697266,0.921875 0.598191,-0.253014 1.165263,-0.562461 1.697266,-0.921875 z m -8.5625,1.257812 c 0.625711,0.194487 1.277519,0.330223 1.949218,0.398438 -0.671387,-0.06838 -1.323686,-0.203742 -1.949218,-0.398438 z m 5.945312,0 c -0.626133,0.194883 -1.279101,0.330117 -1.951172,0.398438 0.672341,-0.06828 1.324913,-0.203651 1.951172,-0.398438 z"
         style="fill:#2e7d32;fill-opacity:1;stroke-width:0.99999994;filter:url(#filter1334)"
         inkscape:connector-curvature="0" />
      <g
         id="g1201"
         transform="matrix(0.26458333,0,0,0.26458333,3.4396571,287.21064)">
        <path
           style="fill:#fbffff;fill-opacity:1"
           d="m 32.75,19.273438 c -0.650167,0 -1.175781,0.523661 -1.175781,1.173828 0,0.094 0.01557,0.185307 0.03516,0.27539 l -2.759766,1.609375 c -0.2115,-0.195833 -0.489411,-0.316406 -0.798828,-0.316406 -0.650166,0 -1.175781,0.523661 -1.175781,1.173828 0,0.650167 0.525615,1.175781 1.175781,1.175781 0.309417,0 0.587328,-0.122526 0.798828,-0.318359 l 2.78711,1.628906 c -0.01958,0.08225 -0.03125,0.169693 -0.03125,0.25586 0,0.630583 0.513948,1.142578 1.144531,1.142578 0.630583,0 1.144531,-0.511995 1.144531,-1.142578 0,-0.630584 -0.513948,-1.144532 -1.144531,-1.144532 -0.297667,0 -0.563911,0.118651 -0.767578,0.302735 l -2.792969,-1.626953 c 0.01958,-0.09008 0.03516,-0.179438 0.03516,-0.273438 0,-0.094 -0.01557,-0.183354 -0.03516,-0.273437 l 2.761719,-1.609375 c 0.2115,0.195833 0.489411,0.316406 0.798828,0.316406 0.650167,0 1.175781,-0.525615 1.175781,-1.175781 0,-0.650167 -0.525614,-1.173828 -1.175781,-1.173828 z m -10.857422,0.779296 c -5.52,0 -10,4.48 -10,10 0,5.52 4.48,10 10,10 5.52,0 10,-4.48 10,-10 0,-0.34 -0.01883,-0.67 -0.04883,-1 H 29.8125 c 0.04,0.33 0.08008,0.66 0.08008,1 0,2.08 -0.799609,3.970625 -2.099609,5.390625 -0.26,-0.81 -1.000391,-1.390625 -1.900391,-1.390625 h -1 v -3 c 0,-0.55 -0.45,-1 -1,-1 h -6 v -2 h 2 c 0.55,0 1,-0.45 1,-1 v -2 h 2 c 1.1,0 2,-0.9 2,-2 v -2.539062 c -0.95,-0.3 -1.95,-0.460938 -3,-0.460938 z m -7.789062,8.210938 4.789062,4.789062 v 1 c 0,1.1 0.9,2 2,2 v 1.931641 c -3.95,-0.49 -7,-3.851641 -7,-7.931641 0,-0.62 0.08094,-1.209062 0.210938,-1.789062 z"
           id="path1195"
           inkscape:connector-curvature="0"
           transform="translate(-10.892857,-17.053569)" />
        <path
           id="path1197"
           d="M 0,0 H 24 V 24 H 0 Z"
           inkscape:connector-curvature="0"
           style="fill:none" />
      </g>
      <g
         transform="matrix(0.26458333,0,0,0.26458333,3.175,287.475)"
         id="g1342">
        <path
           style="fill:none"
           inkscape:connector-curvature="0"
           d="M 0,0 H 24 V 24 H 0 Z"
           id="path1340" />
      </g>
    </g>
  </g>
</svg>
